<svg xmlns="http://www.w3.org/2000/svg" width="64" height="64" viewBox="0 0 64 64" role="img" aria-labelledby="title">
  <title id="title">FBControl</title>
  <defs>
    <linearGradient id="bg" x1="8" y1="8" x2="56" y2="56" gradientUnits="userSpaceOnUse">
      <stop offset="0" stop-color="#ffb86b"/>
      <stop offset="0.54" stop-color="#f97316"/>
      <stop offset="1" stop-color="#c2410c"/>
    </linearGradient>
    <filter id="shadow" x="0" y="0" width="64" height="64" filterUnits="userSpaceOnUse" color-interpolation-filters="sRGB">
      <feDropShadow dx="0" dy="5" stdDeviation="5" flood-color="#9a3412" flood-opacity="0.22"/>
    </filter>
  </defs>
  <rect x="6" y="6" width="52" height="52" rx="15" fill="url(#bg)" filter="url(#shadow)"/>
  <circle cx="27.8" cy="21.2" r="2.9" fill="#fff7ed"/>
  <path d="M13.6 36.7C15.3 28.4 20.9 23.3 28 23.3C35.1 23.3 40.8 28.4 42.4 36.7H13.6Z" fill="#ffffff"/>
  <path d="M11.6 40.5H45.2C47 40.5 48.4 41.9 48.4 43.7C48.4 45.5 47 46.9 45.2 46.9H11.6C9.8 46.9 8.4 45.5 8.4 43.7C8.4 41.9 9.8 40.5 11.6 40.5Z" fill="#fff7ed"/>
  <path d="M43.3 19.4H54L52.4 32.5C52 35.5 49.4 37.8 46.6 37.8C43.8 37.8 41.1 35.5 40.8 32.5L39.2 19.4H43.3Z" fill="#ffffff"/>
  <path d="M44.9 37.6H48.3V45H52.5C53.9 45 55 46.1 55 47.5H38.2C38.2 46.1 39.3 45 40.7 45H44.9V37.6Z" fill="#fff7ed"/>
</svg>
