<svg xmlns="http://www.w3.org/2000/svg" width="64" height="64" viewBox="0 0 64 64" fill="none">
  <defs>
    <linearGradient id="fbWhiteBg" x1="8" y1="8" x2="56" y2="56" gradientUnits="userSpaceOnUse">
      <stop offset="0" stop-color="#1E293B"/>
      <stop offset="1" stop-color="#0F172A"/>
    </linearGradient>
    <linearGradient id="fbWhiteAccent" x1="17" y1="16" x2="46" y2="45" gradientUnits="userSpaceOnUse">
      <stop offset="0" stop-color="#FFFFFF"/>
      <stop offset="1" stop-color="#E2E8F0"/>
    </linearGradient>
  </defs>

  <rect x="6" y="6" width="52" height="52" rx="14" fill="url(#fbWhiteBg)"/>

  <path d="M31.6 17C24.2 17 18.2 23 18.2 30.4C18.2 37.8 24.2 43.8 31.6 43.8C37.4 43.8 42.3 40.1 44.2 34.9H36.8C35.6 36.2 33.8 37 31.9 37C28.1 37 25 33.9 25 30.1C25 26.3 28.1 23.2 31.9 23.2C33.8 23.2 35.6 24 36.8 25.2H44.2C42.3 20.2 37.5 17 31.6 17Z" fill="url(#fbWhiteAccent)"/>
  <path d="M38.2 35.2L41 39.8H34.9L33.1 36.8L38.2 35.2Z" fill="#F8FAFC"/>
  <circle cx="45.6" cy="15.1" r="3" fill="#F8FAFC"/>
</svg>
