<svg xmlns="http://www.w3.org/2000/svg" width="64" height="64" viewBox="0 0 64 64" fill="none">
  <defs>
    <linearGradient id="ocaGradientFav" x1="6" y1="5" x2="53" y2="51" gradientUnits="userSpaceOnUse">
      <stop offset="0" stop-color="#FFB347"/>
      <stop offset="0.5" stop-color="#FF8F1F"/>
      <stop offset="1" stop-color="#F97316"/>
    </linearGradient>
    <linearGradient id="ocaAccentFav" x1="12" y1="12" x2="45" y2="44" gradientUnits="userSpaceOnUse">
      <stop offset="0" stop-color="#22D3EE"/>
      <stop offset="1" stop-color="#0891B2"/>
    </linearGradient>
    <filter id="shadowFav" x="0" y="0" width="64" height="64" filterUnits="userSpaceOnUse" color-interpolation-filters="sRGB">
      <feDropShadow dx="0" dy="3" stdDeviation="2.5" flood-color="#0F172A" flood-opacity="0.24"/>
    </filter>
  </defs>

  <g filter="url(#shadowFav)">
    <rect x="6" y="5" width="48" height="48" rx="12.5" fill="url(#ocaGradientFav)"/>
    <path d="M30.6 16.2C23.5 16.2 17.7 22 17.7 29.1C17.7 36.2 23.5 42 30.6 42C36.2 42 40.9 38.5 42.7 33.5H35.6C34.4 34.7 32.7 35.5 30.8 35.5C27.2 35.5 24.2 32.5 24.2 28.9C24.2 25.3 27.2 22.4 30.8 22.4C32.7 22.4 34.4 23.1 35.6 24.3H42.7C40.9 19.5 36.3 16.2 30.6 16.2Z" fill="white"/>
    <path d="M37.2 34L39.9 38.3H34L32.3 35.6L37.2 34Z" fill="url(#ocaAccentFav)"/>
    <circle cx="45.3" cy="14.4" r="3.1" fill="#FFF5E9"/>
  </g>
</svg>
