<svg width="640" height="180" viewBox="0 0 640 180" fill="none" xmlns="http://www.w3.org/2000/svg">
  <defs>
    <linearGradient id="ocaGradient" x1="18" y1="16" x2="150" y2="146" gradientUnits="userSpaceOnUse">
      <stop offset="0" stop-color="#FFB347"/>
      <stop offset="0.5" stop-color="#FF8F1F"/>
      <stop offset="1" stop-color="#F97316"/>
    </linearGradient>
    <linearGradient id="ocaAccent" x1="34" y1="32" x2="128" y2="122" gradientUnits="userSpaceOnUse">
      <stop offset="0" stop-color="#22D3EE"/>
      <stop offset="1" stop-color="#0891B2"/>
    </linearGradient>
    <filter id="shadow" x="0" y="0" width="180" height="180" filterUnits="userSpaceOnUse" color-interpolation-filters="sRGB">
      <feDropShadow dx="0" dy="10" stdDeviation="10" flood-color="#0F172A" flood-opacity="0.24"/>
    </filter>
  </defs>

  <g filter="url(#shadow)">
    <rect x="18" y="16" width="132" height="132" rx="34" fill="url(#ocaGradient)"/>
    <path d="M85.8 47C66.3 47 50.5 62.8 50.5 82.3C50.5 101.8 66.3 117.6 85.8 117.6C101.1 117.6 114.1 107.9 119.1 94.2H99.7C96.5 97.5 91.9 99.5 86.8 99.5C76.9 99.5 68.8 91.4 68.8 81.5C68.8 71.6 76.9 63.6 86.8 63.6C91.9 63.6 96.5 65.6 99.7 68.8H119.1C114.1 55.5 101.5 47 85.8 47Z" fill="white"/>
    <path d="M104 95.7L111.4 107.5L95.4 107.5L90.8 100.1L104 95.7Z" fill="url(#ocaAccent)"/>
    <circle cx="126.5" cy="40.5" r="8.5" fill="#FFF5E9"/>
  </g>

  <text x="182" y="88" fill="#0F172A" font-size="62" font-family="Manrope, Inter, Segoe UI, Arial, sans-serif" font-weight="800" letter-spacing="-1.6">OCA</text>
  <text x="182" y="132" fill="#475569" font-size="42" font-family="Manrope, Inter, Segoe UI, Arial, sans-serif" font-weight="700" letter-spacing="2">TOOLS</text>
</svg>
